PathFileType	4	(X/Y/Z)	Kaydara																																																																																																																									
DataRate	CameraRate	NumFrames	NumMarkers	Units	OrigDataRate	OrigDataStartFrame	OrigNumFrames																																																																																																																					
30	30	5	41	mm	30	89	147																																																																																																																					
Frame#	Time	PAIB_LFHD			PAIB_RFHD			PAIB_LBHD			PAIB_RBHD			PAIB_LFTShould			PAIB_RFTShould			PAIB_LRRShould			PAIB_RRRShould			PAIB_T10			PAIB_STRN			PAIB_TRUN			PAIB_LSHO			PAIB_LUPA			PAIB_LELB			PAIB_LFRM			PAIB_LWRA			PAIB_LWRB			PAIB_LFIN			PAIB_RSHO			PAIB_RUPA			PAIB_RELB			PAIB_RFRM			PAIB_RWRA			PAIB_RWRB			PAIB_RFIN			PAIB_LFWT			PAIB_RFWT			PAIB_LBWT			PAIB_RBWT			PAIB_LTHI			PAIB_LKNE			PAIB_LSHN			PAIB_LANK			PAIB_LHEE			PAIB_LTOE			PAIB_RTHI			PAIB_RKNE			PAIB_RSHN			PAIB_RANK			PAIB_RHEE			PAIB_RTOE		
		X1	Y1	Z1	X2	Y2	Z2	X3	Y3	Z3	X4	Y4	Z4	X5	Y5	Z5	X6	Y6	Z6	X7	Y7	Z7	X8	Y8	Z8	X9	Y9	Z9	X10	Y10	Z10	X11	Y11	Z11	X12	Y12	Z12	X13	Y13	Z13	X14	Y14	Z14	X15	Y15	Z15	X16	Y16	Z16	X17	Y17	Z17	X18	Y18	Z18	X19	Y19	Z19	X20	Y20	Z20	X21	Y21	Z21	X22	Y22	Z22	X23	Y23	Z23	X24	Y24	Z24	X25	Y25	Z25	X26	Y26	Z26	X27	Y27	Z27	X28	Y28	Z28	X29	Y29	Z29	X30	Y30	Z30	X31	Y31	Z31	X32	Y32	Z32	X33	Y33	Z33	X34	Y34	Z34	X35	Y35	Z35	X36	Y36	Z36	X37	Y37	Z37	X38	Y38	Z38	X39	Y39	Z39	X40	Y40	Z40	X41	Y41	Z41
																																																																																																																												
74	2.933	278.25657	1667.08115	-1059.92348	95.46879	1662.10678	-1084.70634	303.6635	1610.32059	-1174.33159	101.49809	1618.46786	-1192.32605	242.77294	1396.34384	-1044.41399	119.79233	1398.65189	-1056.01143	267.75381	1459.67087	-1192.58247	118.89836	1463.32916	-1195.94414	191.65855	1302.81479	-1277.40707	186.09226	1328.88229	-1010.35339	183.71325	1226.26472	-993.45604	376.55399	1408.43491	-1120.52795	451.02249	1204.89166	-1093.63083	502.99469	1123.57056	-1123.99376	497.19406	1050.54123	-1015.85999	407.40635	1020.14473	-892.80167	453.46836	960.16068	-924.67468	447.35886	972.60796	-852.23938	-3.31237	1415.05951	-1139.15771	-74.51023	1270.23888	-1238.54065	-113.65862	1167.56897	-1274.7451	-167.26784	1038.30338	-1277.35489	-167.92387	911.31363	-1186.44249	-215.27529	920.27145	-1256.7556	-236.86476	875.58304	-1200.24681	299.48488	928.95645	-1070.55954	67.86483	942.88292	-1054.40437	212.47276	988.62	-1277.28035	71.2586	979.1806	-1267.17323	251.6621	760.71114	-1327.14386	298.26597	496.63086	-1324.54529	266.66082	312.74443	-1375.90057	250.01213	166.6173	-1521.00174	189.94936	175.84694	-1563.12759	238.29264	67.52958	-1377.68005	22.03088	673.12775	-1147.74712	29.03772	490.04173	-960.32913	87.40088	318.87796	-890.90057	69.86905	100.42789	-919.75342	140.19675	100.99744	-964.37492	78.1837	109.32017	-746.64612
75	2.967	272.04716	1658.19443	-1014.55734	89.43131	1651.49612	-1040.159	298.33704	1598.34045	-1127.16393	96.28141	1604.98123	-1146.56593	238.42226	1386.25229	-991.37039	114.97891	1386.91681	-1005.49942	265.12594	1450.19501	-1139.26414	116.33453	1450.86121	-1146.4357	192.49514	1291.34293	-1224.82544	181.63177	1317.28928	-959.03442	180.5514	1214.97032	-942.15309	373.62789	1400.67978	-1065.91751	451.26259	1198.07785	-1040.75775	504.9342	1118.16788	-1071.62292	495.5986	1048.86696	-960.98549	402.53479	1024.3573	-839.38484	448.36773	962.7124	-867.08809	440.21397	978.32481	-795.53787	-5.91544	1401.87744	-1092.52945	-74.54769	1257.97035	-1194.96986	-114.51658	1155.8699	-1231.30379	-170.66656	1027.60788	-1234.22882	-179.29598	903.31772	-1139.85207	-221.61755	910.78011	-1213.54164	-248.47607	869.06883	-1157.47536	300.37737	916.25214	-1021.27289	68.86271	932.27745	-1003.54988	211.31165	980.78987	-1226.00845	69.95006	970.70053	-1215.83603	250.38542	759.00276	-1281.73523	299.19838	496.26511	-1296.76254	268.42028	315.10265	-1357.81235	252.09326	177.33784	-1511.17676	191.8615	188.97869	-1552.33124	238.59671	67.538	-1377.36328	25.17041	661.82785	-1101.26106	31.98238	482.49512	-906.17065	92.15343	323.26702	-817.58743	69.30302	108.38105	-812.37648	139.09933	94.72574	-861.72165	80.6803	142.82408	-643.67081
76	3	263.63659	1651.65924	-967.58034	81.32326	1641.96594	-993.84613	291.29017	1587.95197	-1077.83752	89.25711	1591.67267	-1098.55446	232.71519	1378.05817	-934.41849	109.50399	1376.77155	-950.92171	260.37296	1443.84155	-1081.92032	111.76875	1441.17645	-1092.4086	191.64898	1283.60855	-1169.40941	176.92833	1307.66113	-903.37029	177.03739	1204.92371	-887.65472	368.78368	1396.09024	-1006.91963	449.20681	1193.19923	-987.80273	503.52203	1114.99657	-1020.79613	494.0292	1045.35927	-910.36179	401.39187	1021.7923	-788.59215	446.51493	959.5253	-816.14334	438.6047	975.71793	-744.54819	-10.18935	1390.18753	-1040.60631	-75.8501	1245.41763	-1142.9512	-115.27485	1143.52745	-1179.65652	-172.8623	1015.93735	-1182.6976	-188.19601	894.23904	-1085.36331	-225.85505	900.13786	-1161.98227	-257.69384	861.57768	-1107.06093	300.9873	905.65018	-969.02817	69.41008	922.84607	-950.43938	209.85844	972.35847	-1173.0983	68.07531	963.80135	-1163.9901	248.79213	754.90677	-1232.53868	300.88551	493.63441	-1256.58752	270.32541	316.17126	-1330.14191	256.74826	191.02383	-1494.82819	197.02055	206.33772	-1535.11688	238.34982	67.79448	-1375.97382	21.62789	655.79178	-1044.87328	36.33584	476.08147	-851.48956	99.54165	315.53448	-767.55356	78.43524	98.37427	-762.46384	146.28894	85.97753	-814.26979	95.37531	139.84645	-596.65253
77	3.033	253.85258	1647.19666	-919.51447	71.81166	1634.52866	-946.11885	282.73821	1578.85788	-1026.66313	80.73279	1579.56085	-1048.36441	225.68665	1371.90887	-874.65302	102.59588	1368.68698	-892.28287	253.33452	1440.50476	-1021.6201	104.58568	1433.76617	-1033.56514	188.30866	1278.92746	-1110.70023	170.58664	1300.50461	-844.41566	172.5297	1197.59415	-829.66682	362.40589	1394.90494	-945.59341	444.78218	1190.84	-935.38719	497.92957	1114.11217	-972.16721	492.36214	1040.35751	-864.30084	404.17488	1013.0024	-740.1844	447.47581	950.71854	-772.09808	442.30408	964.53262	-699.27055	-16.57201	1380.16006	-982.89795	-79.05778	1233.79158	-1084.82613	-117.32914	1131.52733	-1121.5554	-174.60295	1003.60992	-1122.836	-193.25554	884.66614	-1022.21245	-227.70166	888.66203	-1100.50056	-262.85044	852.84523	-1046.33675	299.1275	897.07596	-912.60353	68.16687	919.12193	-894.35211	209.54351	967.60208	-1116.80641	66.73264	961.04904	-1108.82721	247.7973	749.28787	-1177.40044	303.41572	488.6013	-1206.01425	274.179	317.08347	-1294.04877	264.7492	206.99438	-1469.16458	205.89645	227.48873	-1509.05563	238.02797	67.8951	-1375.25757	20.39937	652.68623	-988.53172	40.96159	468.17703	-802.91832	106.87735	301.97403	-729.71191	90.76083	81.51671	-757.31728	153.97482	82.77575	-801.28426	106.77126	98.32467	-587.25758
78	3.067	243.58747	1648.23364	-871.18561	61.71367	1632.38754	-897.86598	273.60327	1574.03488	-974.17557	71.60996	1571.81839	-996.80061	218.25008	1370.91675	-811.49277	95.74701	1364.69376	-830.53932	245.64318	1443.9502	-956.96747	95.61211	1432.36694	-970.17502	184.29522	1282.15286	-1049.19601	164.07894	1297.63321	-783.3625	167.37263	1194.44107	-770.65346	355.7745	1398.86536	-880.34843	438.34766	1192.61116	-883.86391	488.46737	1117.11548	-926.29425	490.51243	1035.54688	-824.62807	410.63892	998.9537	-697.14211	451.1964	939.37622	-737.00005	451.58421	946.88721	-663.15369	-23.59684	1372.5972	-920.11612	-84.63008	1224.62296	-1020.80116	-121.34457	1121.36894	-1055.80147	-176.52575	992.69363	-1054.53194	-193.17112	875.61867	-951.71165	-227.53754	877.65724	-1029.99977	-263.0118	843.70041	-975.51849	294.73408	895.26421	-856.36505	64.18829	921.79199	-840.34355	211.62842	966.3662	-1062.44217	68.28361	963.88222	-1056.58508	246.93909	741.63033	-1118.47824	307.43904	480.06126	-1137.84813	279.32844	315.7296	-1243.19359	276.47753	226.81091	-1429.34998	218.83511	255.63122	-1466.4801	238.46361	68.37866	-1378.7001	21.38586	655.7151	-941.72302	38.6413	474.85664	-750.06638	109.57611	299.52616	-693.76175	82.33106	87.56408	-736.56578	149.13193	87.27264	-787.26715	102.12857	84.0585	-560.02342
